<svg width="182" height="18" viewBox="0 0 182 18" fill="none" xmlns="http://www.w3.org/2000/svg">
<path d="M3.984 17.024C2.672 17.024 1.776 16.272 1.296 14.768C0.832 13.264 0.6 11.344 0.6 9.008C0.6 7.488 0.872 6.064 1.416 4.736C1.976 3.392 2.824 2.312 3.96 1.496C5.096 0.664 6.48 0.248 8.112 0.248C9.424 0.248 10.616 0.527999 11.688 1.088C12.76 1.632 13.608 2.416 14.232 3.44C14.872 4.464 15.192 5.648 15.192 6.992C15.192 8.544 14.88 9.848 14.256 10.904C13.632 11.96 12.824 12.744 11.832 13.256C10.84 13.768 9.792 14.024 8.688 14.024C7.792 14.024 6.968 13.872 6.216 13.568C6.312 14.08 6.36 14.472 6.36 14.744C6.36 16.264 5.568 17.024 3.984 17.024ZM8.352 10.304C8.928 10.304 9.424 10.096 9.84 9.68C10.272 9.248 10.488 8.752 10.488 8.192C10.488 7.616 10.272 7.12 9.84 6.704C9.424 6.272 8.928 6.056 8.352 6.056C7.792 6.056 7.296 6.272 6.864 6.704C6.432 7.12 6.216 7.616 6.216 8.192C6.216 8.752 6.432 9.248 6.864 9.68C7.296 10.096 7.792 10.304 8.352 10.304ZM21.4599 17C20.2759 17 19.2279 16.768 18.3159 16.304C17.4039 15.84 16.6919 15.192 16.1799 14.36C15.6839 13.512 15.4359 12.56 15.4359 11.504C15.4359 10.464 15.6839 9.504 16.1799 8.624C16.6919 7.744 17.3959 7.04 18.2919 6.512C19.1879 5.984 20.2039 5.72 21.3399 5.72C22.3639 5.72 23.2679 5.928 24.0519 6.344C24.8359 6.76 25.4359 7.312 25.8519 8C26.2679 8.672 26.4759 9.376 26.4759 10.112C26.4759 11.312 26.0199 12.192 25.1079 12.752C24.2119 13.296 23.1399 13.568 21.8919 13.568C21.0599 13.568 20.3559 13.464 19.7799 13.256C20.2599 14.04 21.0519 14.432 22.1559 14.432C22.6039 14.432 23.0839 14.376 23.5959 14.264C23.7879 14.216 23.9719 14.192 24.1479 14.192C24.4999 14.192 24.7799 14.28 24.9879 14.456C25.2119 14.632 25.3239 14.872 25.3239 15.176C25.3239 15.672 25.0199 16.104 24.4119 16.472C23.8039 16.824 22.8199 17 21.4599 17ZM19.8519 10.328C19.9959 10.552 20.1879 10.72 20.4279 10.832C20.6839 10.928 20.9639 10.976 21.2679 10.976C21.6199 10.976 21.9239 10.896 22.1799 10.736C22.4519 10.576 22.5879 10.368 22.5879 10.112C22.5879 9.824 22.4679 9.576 22.2279 9.368C22.0039 9.16 21.6759 9.056 21.2439 9.056C20.8119 9.056 20.4679 9.192 20.2119 9.464C19.9719 9.72 19.8519 10.008 19.8519 10.328ZM30.0039 17C28.9799 17 28.2919 16.4 27.9399 15.2C27.6039 14 27.4359 12.344 27.4359 10.232C27.4359 9.272 27.4759 8.472 27.5559 7.832C27.6519 7.176 27.8679 6.624 28.2039 6.176C28.5559 5.712 29.0919 5.48 29.8119 5.48C30.2599 5.48 30.6519 5.584 30.9879 5.792C31.3399 6 31.5639 6.296 31.6599 6.68C32.0119 6.36 32.4679 6.12 33.0279 5.96C33.5879 5.8 34.1879 5.72 34.8279 5.72C35.3399 5.72 35.8599 5.848 36.3879 6.104C36.9319 6.36 37.3799 6.712 37.7319 7.16C38.0999 7.592 38.2839 8.064 38.2839 8.576C38.2839 9.088 38.0999 9.544 37.7319 9.944C37.3799 10.328 36.9079 10.52 36.3159 10.52C36.1239 10.52 35.9399 10.496 35.7639 10.448C35.6039 10.4 35.4599 10.352 35.3319 10.304C35.0119 10.176 34.7559 10.112 34.5639 10.112C33.9399 10.112 33.3879 10.36 32.9079 10.856C32.4439 11.336 32.2119 11.96 32.2119 12.728C32.2119 13.576 32.1799 14.28 32.1159 14.84C32.0519 15.4 31.8599 15.904 31.5399 16.352C31.2199 16.784 30.7079 17 30.0039 17ZM43.2471 17C41.8391 17 40.7191 16.768 39.8871 16.304C39.0551 15.84 38.6391 15.24 38.6391 14.504C38.6391 14.024 38.7991 13.656 39.1191 13.4C39.4551 13.128 39.8791 12.992 40.3911 12.992C40.6791 12.992 40.9111 13.032 41.0871 13.112C41.2631 13.192 41.4391 13.304 41.6151 13.448C41.7431 13.56 41.8471 13.64 41.9271 13.688C42.0231 13.736 42.1351 13.76 42.2631 13.76C42.5991 13.76 42.7671 13.64 42.7671 13.4C42.7671 13.176 42.6791 13.008 42.5031 12.896C42.3271 12.768 42.0231 12.616 41.5911 12.44C41.1911 12.28 40.9271 12.168 40.7991 12.104C40.0631 11.752 39.5191 11.336 39.1671 10.856C38.8151 10.376 38.6391 9.864 38.6391 9.32C38.6391 8.712 38.8551 8.136 39.2871 7.592C39.7351 7.032 40.3591 6.584 41.1591 6.248C41.9751 5.896 42.9111 5.72 43.9671 5.72C44.8791 5.72 45.7031 5.848 46.4391 6.104C47.1911 6.36 47.7831 6.712 48.2151 7.16C48.6471 7.592 48.8631 8.072 48.8631 8.6C48.8631 9.096 48.7031 9.472 48.3831 9.728C48.0791 9.984 47.6631 10.112 47.1351 10.112C46.9271 10.112 46.7591 10.096 46.6311 10.064C46.5191 10.016 46.3671 9.944 46.1751 9.848C46.0631 9.784 45.9431 9.728 45.8151 9.68C45.7031 9.632 45.5751 9.608 45.4311 9.608C45.3031 9.608 45.1911 9.656 45.0951 9.752C44.9991 9.832 44.9511 9.936 44.9511 10.064C44.9511 10.304 45.1271 10.48 45.4791 10.592C46.4071 10.896 47.1511 11.28 47.7111 11.744C48.2871 12.208 48.5751 12.848 48.5751 13.664C48.5751 14.704 48.0871 15.52 47.1111 16.112C46.1511 16.704 44.8631 17 43.2471 17ZM55.5844 17.024C54.4324 17.04 53.4004 16.8 52.4884 16.304C51.5924 15.808 50.8884 15.128 50.3764 14.264C49.8804 13.384 49.6164 12.408 49.5844 11.336C49.5684 10.264 49.8164 9.304 50.3284 8.456C50.8404 7.608 51.5524 6.936 52.4644 6.44C53.3924 5.944 54.4324 5.696 55.5844 5.696C56.7044 5.696 57.7124 5.936 58.6084 6.416C59.5204 6.896 60.2404 7.568 60.7684 8.432C61.2964 9.296 61.5764 10.264 61.6084 11.336C61.6244 12.376 61.3764 13.328 60.8644 14.192C60.3524 15.04 59.6324 15.72 58.7044 16.232C57.7924 16.744 56.7524 17.008 55.5844 17.024ZM55.6564 13.52C56.0884 13.52 56.4644 13.352 56.7844 13.016C57.1044 12.68 57.2644 12.288 57.2644 11.84C57.2644 11.392 57.1044 11.008 56.7844 10.688C56.4644 10.352 56.0884 10.184 55.6564 10.184C55.2244 10.184 54.8484 10.352 54.5284 10.688C54.2084 11.008 54.0484 11.392 54.0484 11.84C54.0484 12.288 54.2084 12.68 54.5284 13.016C54.8484 13.352 55.2244 13.52 55.6564 13.52ZM71.8144 17C71.2384 17 70.8064 16.84 70.5184 16.52C70.2464 16.2 70.0784 15.808 70.0144 15.344C69.9504 14.88 69.9184 14.28 69.9184 13.544C69.9184 12.6 69.7904 11.872 69.5344 11.36C69.2784 10.848 68.8624 10.592 68.2864 10.592C67.7584 10.592 67.3584 10.848 67.0864 11.36C66.8304 11.856 66.7024 12.544 66.7024 13.424C66.7024 14.272 66.6784 14.912 66.6304 15.344C66.5824 15.776 66.4224 16.16 66.1504 16.496C65.8784 16.816 65.4304 16.976 64.8064 16.976C63.8944 16.976 63.2544 16.392 62.8864 15.224C62.5184 14.04 62.3344 12.656 62.3344 11.072C62.3344 7.232 63.1424 5.312 64.7584 5.312C65.2064 5.312 65.5744 5.424 65.8624 5.648C66.1504 5.856 66.3504 6.16 66.4624 6.56C66.6704 6.336 66.9904 6.136 67.4224 5.96C67.8704 5.784 68.3424 5.696 68.8384 5.696C70.5984 5.696 71.9104 6.336 72.7744 7.616C73.6544 8.896 74.0944 10.632 74.0944 12.824C74.0944 14.12 73.9264 15.144 73.5904 15.896C73.2544 16.632 72.6624 17 71.8144 17ZM79.1466 17C77.8986 17 76.8746 16.72 76.0746 16.16C75.2746 15.584 74.8746 14.76 74.8746 13.688C74.8746 12.76 75.2826 12.024 76.0986 11.48C76.9146 10.936 77.9306 10.664 79.1466 10.664C79.5946 10.664 80.0106 10.704 80.3946 10.784C80.7946 10.848 81.0666 10.928 81.2106 11.024C81.2106 10.624 81.0426 10.296 80.7066 10.04C80.3706 9.768 79.8586 9.632 79.1706 9.632C78.8666 9.632 78.6186 9.656 78.4266 9.704C78.2346 9.752 78.0266 9.824 77.8026 9.92C77.5786 10.016 77.3706 10.088 77.1786 10.136C77.0026 10.184 76.7626 10.208 76.4586 10.208C75.9466 10.208 75.5466 10.08 75.2586 9.824C74.9706 9.552 74.8266 9.144 74.8266 8.6C74.8266 7.976 75.0506 7.448 75.4986 7.016C75.9626 6.584 76.5386 6.264 77.2266 6.056C77.9146 5.832 78.6026 5.72 79.2906 5.72C80.6506 5.72 81.7866 5.976 82.6986 6.488C83.6266 6.984 84.3066 7.648 84.7386 8.48C85.1866 9.312 85.4106 10.232 85.4106 11.24C85.4106 11.784 85.3626 12.288 85.2666 12.752C85.1866 13.216 85.0746 13.576 84.9306 13.832C85.1546 14.024 85.3226 14.248 85.4346 14.504C85.5626 14.76 85.6266 15.024 85.6266 15.296C85.6266 15.76 85.4666 16.16 85.1466 16.496C84.8426 16.832 84.4346 17 83.9226 17C83.5386 17 83.2266 16.944 82.9866 16.832C82.7466 16.72 82.4906 16.544 82.2186 16.304C81.8186 16.544 81.3786 16.72 80.8986 16.832C80.4346 16.944 79.8506 17 79.1466 17ZM79.6266 14.576C79.9626 14.576 80.2266 14.504 80.4186 14.36C80.6266 14.216 80.7306 14.04 80.7306 13.832C80.7306 13.624 80.6266 13.448 80.4186 13.304C80.2266 13.16 79.9626 13.088 79.6266 13.088C79.2906 13.088 79.0186 13.16 78.8106 13.304C78.6186 13.448 78.5226 13.624 78.5226 13.832C78.5226 14.04 78.6186 14.216 78.8106 14.36C79.0186 14.504 79.2906 14.576 79.6266 14.576ZM89.6346 16.952C88.8346 16.952 88.2346 16.656 87.8346 16.064C87.4346 15.472 87.1626 14.6 87.0186 13.448C86.8906 12.28 86.8266 10.656 86.8266 8.576C86.8266 6.576 86.8746 5.016 86.9706 3.896C87.0826 2.776 87.3386 1.88 87.7386 1.208C88.1546 0.535999 88.7946 0.199999 89.6586 0.199999C90.5226 0.199999 91.1546 0.535999 91.5546 1.208C91.9706 1.88 92.2266 2.776 92.3226 3.896C92.4346 5.016 92.4906 6.576 92.4906 8.576C92.4906 10.544 92.4026 12.136 92.2266 13.352C92.0666 14.552 91.7786 15.456 91.3626 16.064C90.9466 16.656 90.3706 16.952 89.6346 16.952ZM116.009 3.056C116.009 3.872 115.745 4.488 115.217 4.904C114.689 5.32 113.929 5.608 112.937 5.768C112.985 6.6 113.009 7.624 113.009 8.84C113.009 11.56 112.473 13.6 111.401 14.96C110.329 16.32 108.681 17 106.457 17C105.369 17 104.401 16.784 103.553 16.352C102.705 15.904 102.049 15.312 101.585 14.576C101.121 13.84 100.889 13.056 100.889 12.224C100.889 11.44 101.105 10.824 101.537 10.376C101.985 9.928 102.505 9.704 103.097 9.704C103.657 9.704 104.065 9.816 104.321 10.04C104.593 10.248 104.833 10.552 105.041 10.952C105.217 11.256 105.377 11.48 105.521 11.624C105.681 11.768 105.905 11.84 106.193 11.84C106.721 11.84 107.057 11.576 107.201 11.048C107.361 10.52 107.441 9.624 107.441 8.36V7.352V5.888C106.017 5.824 104.905 5.584 104.105 5.168C103.321 4.752 102.929 4.048 102.929 3.056C102.929 2.208 103.217 1.576 103.793 1.16C104.385 0.743999 105.129 0.479999 106.025 0.368C106.937 0.255999 108.089 0.199999 109.481 0.199999C110.873 0.199999 112.017 0.255999 112.913 0.368C113.809 0.479999 114.545 0.743999 115.121 1.16C115.713 1.576 116.009 2.208 116.009 3.056ZM120.319 17.024C119.167 17.04 118.135 16.8 117.223 16.304C116.327 15.808 115.623 15.128 115.111 14.264C114.615 13.384 114.351 12.408 114.319 11.336C114.303 10.264 114.551 9.304 115.063 8.456C115.575 7.608 116.287 6.936 117.199 6.44C118.127 5.944 119.167 5.696 120.319 5.696C121.439 5.696 122.447 5.936 123.343 6.416C124.255 6.896 124.975 7.568 125.503 8.432C126.031 9.296 126.311 10.264 126.343 11.336C126.359 12.376 126.111 13.328 125.599 14.192C125.087 15.04 124.367 15.72 123.439 16.232C122.527 16.744 121.487 17.008 120.319 17.024ZM120.391 13.52C120.823 13.52 121.199 13.352 121.519 13.016C121.839 12.68 121.999 12.288 121.999 11.84C121.999 11.392 121.839 11.008 121.519 10.688C121.199 10.352 120.823 10.184 120.391 10.184C119.959 10.184 119.583 10.352 119.263 10.688C118.943 11.008 118.783 11.392 118.783 11.84C118.783 12.288 118.943 12.68 119.263 13.016C119.583 13.352 119.959 13.52 120.391 13.52ZM132.877 17C131.709 17 130.685 16.712 129.805 16.136C128.925 15.544 128.245 14.728 127.765 13.688C127.301 12.632 127.069 11.416 127.069 10.04C127.069 8.696 127.285 7.64 127.717 6.872C128.149 6.104 128.749 5.72 129.517 5.72C130.877 5.72 131.557 6.416 131.557 7.808C131.557 8.096 131.549 8.352 131.533 8.576C131.517 8.784 131.501 8.968 131.485 9.128C131.421 9.768 131.389 10.28 131.389 10.664C131.389 11.368 131.533 11.904 131.821 12.272C132.109 12.64 132.461 12.824 132.877 12.824C133.309 12.824 133.661 12.648 133.933 12.296C134.221 11.928 134.365 11.384 134.365 10.664C134.365 10.152 134.341 9.68 134.293 9.248C134.277 9.104 134.261 8.896 134.245 8.624C134.229 8.336 134.221 8.072 134.221 7.832C134.221 6.424 134.901 5.72 136.261 5.72C137.029 5.72 137.621 6.104 138.037 6.872C138.469 7.624 138.685 8.68 138.685 10.04C138.685 12.168 138.189 13.864 137.197 15.128C136.205 16.376 134.765 17 132.877 17ZM142.059 17C141.035 17 140.347 16.4 139.995 15.2C139.659 14 139.491 12.344 139.491 10.232C139.491 9.272 139.531 8.472 139.611 7.832C139.707 7.176 139.923 6.624 140.259 6.176C140.611 5.712 141.147 5.48 141.867 5.48C142.315 5.48 142.707 5.584 143.043 5.792C143.395 6 143.619 6.296 143.715 6.68C144.067 6.36 144.523 6.12 145.083 5.96C145.643 5.8 146.243 5.72 146.883 5.72C147.395 5.72 147.915 5.848 148.443 6.104C148.987 6.36 149.435 6.712 149.787 7.16C150.155 7.592 150.339 8.064 150.339 8.576C150.339 9.088 150.155 9.544 149.787 9.944C149.435 10.328 148.963 10.52 148.371 10.52C148.179 10.52 147.995 10.496 147.819 10.448C147.659 10.4 147.515 10.352 147.387 10.304C147.067 10.176 146.811 10.112 146.619 10.112C145.995 10.112 145.443 10.36 144.963 10.856C144.499 11.336 144.267 11.96 144.267 12.728C144.267 13.576 144.235 14.28 144.171 14.84C144.107 15.4 143.915 15.904 143.595 16.352C143.275 16.784 142.763 17 142.059 17ZM160.549 17C159.973 17 159.541 16.84 159.253 16.52C158.981 16.2 158.813 15.808 158.749 15.344C158.685 14.88 158.653 14.28 158.653 13.544C158.653 12.6 158.525 11.872 158.269 11.36C158.013 10.848 157.597 10.592 157.021 10.592C156.493 10.592 156.093 10.848 155.821 11.36C155.565 11.856 155.437 12.544 155.437 13.424C155.437 14.272 155.413 14.912 155.365 15.344C155.317 15.776 155.157 16.16 154.885 16.496C154.613 16.816 154.165 16.976 153.541 16.976C152.629 16.976 151.989 16.392 151.621 15.224C151.253 14.04 151.069 12.656 151.069 11.072C151.069 7.232 151.877 5.312 153.493 5.312C153.941 5.312 154.309 5.424 154.597 5.648C154.885 5.856 155.085 6.16 155.197 6.56C155.405 6.336 155.725 6.136 156.157 5.96C156.605 5.784 157.077 5.696 157.573 5.696C159.333 5.696 160.645 6.336 161.509 7.616C162.389 8.896 162.829 10.632 162.829 12.824C162.829 14.12 162.661 15.144 162.325 15.896C161.989 16.632 161.397 17 160.549 17ZM167.881 17C166.633 17 165.609 16.72 164.809 16.16C164.009 15.584 163.609 14.76 163.609 13.688C163.609 12.76 164.017 12.024 164.833 11.48C165.649 10.936 166.665 10.664 167.881 10.664C168.329 10.664 168.745 10.704 169.129 10.784C169.529 10.848 169.801 10.928 169.945 11.024C169.945 10.624 169.777 10.296 169.441 10.04C169.105 9.768 168.593 9.632 167.905 9.632C167.601 9.632 167.353 9.656 167.161 9.704C166.969 9.752 166.761 9.824 166.537 9.92C166.313 10.016 166.105 10.088 165.913 10.136C165.737 10.184 165.497 10.208 165.193 10.208C164.681 10.208 164.281 10.08 163.993 9.824C163.705 9.552 163.561 9.144 163.561 8.6C163.561 7.976 163.785 7.448 164.233 7.016C164.697 6.584 165.273 6.264 165.961 6.056C166.649 5.832 167.337 5.72 168.025 5.72C169.385 5.72 170.521 5.976 171.433 6.488C172.361 6.984 173.041 7.648 173.473 8.48C173.921 9.312 174.145 10.232 174.145 11.24C174.145 11.784 174.097 12.288 174.001 12.752C173.921 13.216 173.809 13.576 173.665 13.832C173.889 14.024 174.057 14.248 174.169 14.504C174.297 14.76 174.361 15.024 174.361 15.296C174.361 15.76 174.201 16.16 173.881 16.496C173.577 16.832 173.169 17 172.657 17C172.273 17 171.961 16.944 171.721 16.832C171.481 16.72 171.225 16.544 170.953 16.304C170.553 16.544 170.113 16.72 169.633 16.832C169.169 16.944 168.585 17 167.881 17ZM168.361 14.576C168.697 14.576 168.961 14.504 169.153 14.36C169.361 14.216 169.465 14.04 169.465 13.832C169.465 13.624 169.361 13.448 169.153 13.304C168.961 13.16 168.697 13.088 168.361 13.088C168.025 13.088 167.753 13.16 167.545 13.304C167.353 13.448 167.257 13.624 167.257 13.832C167.257 14.04 167.353 14.216 167.545 14.36C167.753 14.504 168.025 14.576 168.361 14.576ZM178.369 16.952C177.569 16.952 176.969 16.656 176.569 16.064C176.169 15.472 175.897 14.6 175.753 13.448C175.625 12.28 175.561 10.656 175.561 8.576C175.561 6.576 175.609 5.016 175.705 3.896C175.817 2.776 176.073 1.88 176.473 1.208C176.889 0.535999 177.529 0.199999 178.393 0.199999C179.257 0.199999 179.889 0.535999 180.289 1.208C180.705 1.88 180.961 2.776 181.057 3.896C181.169 5.016 181.225 6.576 181.225 8.576C181.225 10.544 181.137 12.136 180.961 13.352C180.801 14.552 180.513 15.456 180.097 16.064C179.681 16.656 179.105 16.952 178.369 16.952Z" fill="white"/>
</svg>
